<?xml version="1.0" encoding="UTF-8" standalone="no"?>
<svg
   xmlns:dc="http://purl.org/dc/elements/1.1/"
   xmlns:cc="http://creativecommons.org/ns#"
   xmlns:rdf="http://www.w3.org/1999/02/22-rdf-syntax-ns#"
   xmlns:svg="http://www.w3.org/2000/svg"
   xmlns="http://www.w3.org/2000/svg"
   xmlns:sodipodi="http://sodipodi.sourceforge.net/DTD/sodipodi-0.dtd"
   xmlns:inkscape="http://www.inkscape.org/namespaces/inkscape"
   sodipodi:docname="logobesar.svg"
   inkscape:version="1.0 (4035a4fb49, 2020-05-01)"
   id="svg104"
   version="1.1"
   viewBox="0 0 52.265842 69.68779"
   height="69.68779mm"
   width="52.265842mm">
  <defs
     id="defs98" />
  <sodipodi:namedview
     inkscape:window-maximized="0"
     inkscape:window-y="0"
     inkscape:window-x="76"
     inkscape:window-height="728"
     inkscape:window-width="1274"
     fit-margin-bottom="0"
     fit-margin-right="0"
     fit-margin-left="0"
     fit-margin-top="0"
     showgrid="false"
     inkscape:document-rotation="0"
     inkscape:current-layer="layer1"
     inkscape:document-units="mm"
     inkscape:cy="574.5506"
     inkscape:cx="1104.4844"
     inkscape:zoom="0.35"
     inkscape:pageshadow="2"
     inkscape:pageopacity="0.0"
     borderopacity="1.0"
     bordercolor="#666666"
     pagecolor="#ffffff"
     id="base" />
  <metadata
     id="metadata101">
    <rdf:RDF>
      <cc:Work
         rdf:about="">
        <dc:format>image/svg+xml</dc:format>
        <dc:type
           rdf:resource="http://purl.org/dc/dcmitype/StillImage" />
        <dc:title></dc:title>
      </cc:Work>
    </rdf:RDF>
  </metadata>
  <g
     transform="translate(186.39483,3.8498467)"
     id="layer1"
     inkscape:groupmode="layer"
     inkscape:label="Layer 1">
    <g
       id="g96"
       transform="matrix(1.3134554,0,0,1.3134554,-218.38678,-94.072141)">
      <path
         id="path84"
         d="M 58.622964,121.74763 H 29.883842 c -3.048557,0 -5.526753,-2.4804 -5.526753,-5.52675 V 80.849653 c 0,-3.046347 2.478196,-5.526754 5.526753,-5.526754 h 4.421404 c 0.610154,0 1.105351,0.495197 1.105351,1.105351 0,0.610154 -0.495197,1.10535 -1.105351,1.10535 h -4.421404 c -1.82825,0 -3.316052,1.487803 -3.316052,3.316053 v 35.371227 c 0,1.82825 1.487802,3.31605 3.316052,3.31605 h 28.739122 c 1.82825,0 3.316052,-1.4878 3.316052,-3.31605 V 80.849653 c 0,-1.82825 -1.487802,-3.316053 -3.316052,-3.316053 h -4.421403 c -0.610154,0 -1.105351,-0.495196 -1.105351,-1.10535 0,-0.610154 0.495197,-1.105351 1.105351,-1.105351 h 4.421403 c 3.048557,0 5.526753,2.480407 5.526753,5.526754 v 35.371227 c 0,3.04635 -2.478196,5.52675 -5.526753,5.52675 z"
         style="fill:#ffffff;stroke-width:2.2107" />
      <path
         id="path86"
         d="M 51.990859,81.955004 H 36.515947 c -1.82825,0 -3.316052,-1.487803 -3.316052,-3.316053 v -4.421403 c 0,-0.610154 0.495197,-1.105351 1.105351,-1.105351 h 4.531939 c 0.512882,-2.5202 2.747901,-4.421403 5.416218,-4.421403 2.668317,0 4.903336,1.901203 5.416219,4.421403 h 4.531939 c 0.610153,0 1.10535,0.495197 1.10535,1.105351 v 4.421403 c 0,1.82825 -1.487802,3.316053 -3.316052,3.316053 z M 35.410597,75.322899 v 3.316052 c 0,0.610154 0.497408,1.105351 1.10535,1.105351 h 15.474912 c 0.607943,0 1.105351,-0.495197 1.105351,-1.105351 v -3.316052 h -4.421404 c -0.610154,0 -1.10535,-0.495198 -1.10535,-1.105351 0,-1.82825 -1.487803,-3.316053 -3.316053,-3.316053 -1.82825,0 -3.316052,1.487803 -3.316052,3.316053 0,0.610153 -0.495197,1.105351 -1.105351,1.105351 z"
         style="fill:#ffffff;stroke-width:2.2107" />
      <path
         id="path88"
         d="M 56.412262,90.79781 H 32.094545 c -0.610154,0 -1.105351,-0.495197 -1.105351,-1.105351 0,-0.610154 0.495197,-1.10535 1.105351,-1.10535 h 24.317717 c 0.610154,0 1.105351,0.495196 1.105351,1.10535 0,0.610154 -0.495197,1.105351 -1.105351,1.105351 z"
         style="fill:#ffffff;stroke-width:2.2107" />
      <path
         id="path90"
         d="M 56.412262,97.429915 H 32.094545 c -0.610154,0 -1.105351,-0.495197 -1.105351,-1.105351 0,-0.610154 0.495197,-1.10535 1.105351,-1.10535 h 24.317717 c 0.610154,0 1.105351,0.495196 1.105351,1.10535 0,0.610154 -0.495197,1.105351 -1.105351,1.105351 z"
         style="fill:#ffffff;stroke-width:2.2107" />
      <path
         id="path92"
         d="M 56.412262,104.06202 H 32.094545 c -0.610154,0 -1.105351,-0.4952 -1.105351,-1.10535 0,-0.61015 0.495197,-1.10535 1.105351,-1.10535 h 24.317717 c 0.610154,0 1.105351,0.4952 1.105351,1.10535 0,0.61015 -0.495197,1.10535 -1.105351,1.10535 z"
         style="fill:#ffffff;stroke-width:2.2107" />
      <path
         id="path94"
         d="M 56.412262,110.69413 H 32.094545 c -0.610154,0 -1.105351,-0.4952 -1.105351,-1.10535 0,-0.61016 0.495197,-1.10536 1.105351,-1.10536 h 24.317717 c 0.610154,0 1.105351,0.4952 1.105351,1.10536 0,0.61015 -0.495197,1.10535 -1.105351,1.10535 z"
         style="fill:#ffffff;stroke-width:2.2107" />
    </g>
  </g>
</svg>
